# xmcd
#
# Track frame offsets: 
#        150
#        13870
#        42950
#        75555
#
# Disc length: 1223 seconds
#
# Revision: 6
# Processed by: cddbd v1.5.2PL0 Copyright (c) Steve Scherf et al.
# Submitted via: ExactAudioCopy v0.99pb4
#
DISCID=2504c504
DTITLE=Hypertrophy - Just Come Back 2 Me
DYEAR=1997
DGENRE=Trance
TTITLE0=Radio Edit
TTITLE1=DJ Thoka´s Extended Mix
TTITLE2=Escape From Heaven
TTITLE3=TU
EXTD=
EXTT0=
EXTT1=
EXTT2=
EXTT3=
PLAYORDER=
